# xmcd CD database file
#
# Track frame offsets:
#	187
#	104497
#	136667
#	165842
#
# Disc length: 2713 seconds
#
# Revision: 1
# Processed by: cddbd v1.5.1PL2 Copyright (c) Steve Scherf et al.
# Submitted via: CDex 1.50
#
DISCID=250a9704
DTITLE=Jackie McLean - A Long Drink Of The Blues
DYEAR=1957
DGENRE=Jazz
TTITLE0=A Long Drink Of The Blues
TTITLE1=Embraceable You
TTITLE2=I Cover The Waterfront
TTITLE3=These Foolish Things
EXTD=YEAR: 1957
EXTT0=
EXTT1=
EXTT2=
EXTT3=
PLAYORDER=
